<mxfile host="app.diagrams.net" modified="2024-07-18T06:52:44.771Z" agent="Mozilla/5.0 (Windows NT 10.0; Win64; x64) AppleWebKit/537.36 (KHTML, like Gecko) Chrome/126.0.0.0 Safari/537.36" version="24.6.5" etag="W5A8TxIe67H6VxmZOShJ" type="github">
  <diagram name="第 1 页" id="8YZJDj8TA5NlXJFkaj2q">
    <mxGraphModel>
      <root>
        <mxCell id="0" />
        <mxCell id="1" parent="0" />
      </root>
    </mxGraphModel>
  </diagram>
</mxfile>
